<svg width="28" height="28" viewBox="0 0 28 28" fill="none" xmlns="http://www.w3.org/2000/svg">
<g clip-path="url(#clip0_1036_1155)">
<path d="M4.66666 24.4997V19.833C4.66666 18.9048 5.03541 18.0145 5.69179 17.3581C6.34817 16.7018 7.23841 16.333 8.16666 16.333H14" stroke="white" stroke-width="1.5" stroke-linecap="round" stroke-linejoin="round"/>
<path d="M10.5 19.833L14 16.333L10.5 12.833" stroke="currentColor" stroke-width="1.5" stroke-linecap="round" stroke-linejoin="round"/>
<path d="M16.3333 3.5V8.16667C16.3333 8.47609 16.4562 8.77283 16.675 8.99162C16.8938 9.21042 17.1906 9.33333 17.5 9.33333H22.1667" stroke="currentColor" stroke-width="1.5" stroke-linecap="round" stroke-linejoin="round"/>
<path d="M5.83334 12.8333V5.83333C5.83334 5.21449 6.07917 4.621 6.51675 4.18342C6.95434 3.74583 7.54783 3.5 8.16667 3.5H16.3333L22.1667 9.33333V22.1667C22.1667 22.7855 21.9208 23.379 21.4833 23.8166C21.0457 24.2542 20.4522 24.5 19.8333 24.5H8.75" stroke="currentColor" stroke-width="1.5" stroke-linecap="round" stroke-linejoin="round"/>
</g>
<defs>
<clipPath id="clip0_1036_1155">
<rect width="28" height="28" fill="currentColor"/>
</clipPath>
</defs>
</svg>
