<!--?xml version="1.0" encoding="utf-8"?-->
<!-- Svg Vector Icons : http://www.onlinewebfonts.com/icon -->

<svg version="1.1" xmlns="http://www.w3.org/2000/svg" xmlns:xlink="http://www.w3.org/1999/xlink" x="0px" y="0px" viewBox="0 0 256 256" enable-background="new 0 0 256 256" xml:space="preserve">
<metadata> Svg Vector Icons : http://www.onlinewebfonts.com/icon </metadata>
<g><g><path fill="#ffffff" data-title="Layer 0" xs="0" d="M128,10C62.8,10,10,62.8,10,128c0,65.2,52.8,118,118,118c65.2,0,118-52.8,118-118C246,62.8,193.2,10,128,10z M85.1,37.5c1-0.7,2.1-1,3.4-0.8s2.6,0.4,4,0.8c1.4,0.4,2.8,0.8,4.1,1.3s2.6,0.5,3.7,0.2c2-0.4,3.5-1.2,4.5-2.2c1-1.1,2.7-2.4,5.1-3.9c1.8-1.1,3.9-1.5,6.1-1.2c2.3,0.4,3.9,1.1,5.1,2.2c0.6,0.7,1.2,1.3,1.8,1.8c0.6,0.5,1.3,1,2,1.4c0.7,0.6,1.5,1.1,2.3,1.5h0c0.3,0,0.6-0.1,1.1-0.4c0.8-0.6,2-1.6,3.4-3c1.7-1.6,3.4-2.7,5.1-3.4c1.7-0.7,3.9-0.5,6.8,0.7c1.4,0.4,2.6,1,3.4,1.8c0.8,0.8,1.7,1.5,2.4,2.2c0.8,0.7,1.6,1.3,2.6,1.8c0.9,0.5,2.1,0.7,3.5,0.7c1.4,0,2.6-0.2,3.6-0.6c1-0.4,2-0.8,2.9-1.2c0.9-0.4,1.9-0.6,2.8-0.7c0.9-0.1,2,0,3.3,0.4c1.4,0.6,2.4,1.4,2.9,2.4c0.5,1.1,0.6,2.1,0.4,3.3c-0.2,1.1-0.7,2.3-1.5,3.4c-0.8,1.1-1.7,2-2.9,2.7c-2.7,1.7-4.7,3.4-6.1,5.2c-1.4,1.8-2.8,3.6-4.2,5.6c-0.7,1-1.5,2.1-2.3,3.4c-0.8,1.3-1.6,2.6-2.3,3.8c-0.8,1.6-1.8,3-2.7,4.5h-43.9c-1-1.7-2-3.3-3-4.9c-0.8-1.4-1.8-2.8-2.8-4.2c-1-1.4-1.8-2.7-2.6-3.8c-1.4-2.1-3-4-4.8-5.6c-1.8-1.6-3.5-3.1-5.2-4.4c-1.8-1.3-3.1-3-3.8-5.2C82.4,40.9,83.1,39,85.1,37.5z M201.4,172.9c-1.3,7.1-3.8,13.8-7.5,20.1c-3.8,6.3-8.7,11.8-15,16.4c-6.2,4.7-13.6,8.4-22.2,11.2c-8.5,2.8-18.3,4.1-29.2,4.1c-11.2,0-21.1-1.6-29.7-4.8c-8.6-3.2-15.9-7.3-22-12.4c-6-5.1-10.8-10.8-14.3-17.1c-3.5-6.3-5.9-12.5-7-18.8c-1.3-6.9-1.4-13.6-0.5-19.9s2.6-12.4,5-17.9c2.4-5.6,5.4-10.7,9-15.4c3.6-4.7,7.5-8.8,11.8-12.5c3.7-3.3,7-6.3,10-9.2c3-2.9,5.4-5.5,7.4-7.9c2.4-2.7,4.5-5.2,6.4-7.6h47.8l0,0c1.7,2.3,3.8,4.7,6.4,7.4c2.1,2.4,4.7,5.1,7.9,8.2c3.1,3,6.7,6.3,10.8,9.7c3.4,3,6.9,6.5,10.5,10.5c3.6,4,6.8,8.7,9.4,14.1c2.7,5.4,4.6,11.6,5.6,18.6C203,156.4,202.8,164.2,201.4,172.9z M156.7,182h-19.6l0.3-10.4l19.9-0.3c2.9,0.2,4.9-0.4,6.1-1.7c1.2-1.3,1.8-2.9,1.8-4.7c0-1.6-0.7-3.1-2-4.4c-1.3-1.3-3.4-2-6.3-2H137v-5.8c3.5-3.3,6.6-6.4,9.5-9.5c2.5-2.5,4.9-5,7.3-7.5c2.5-2.6,4.3-4.3,5.5-5.4c4.7-4.1,5.7-7.7,3.1-10.7c-1.4-1.8-3.3-2.7-5.5-2.7s-4.3,0.8-6.1,2.5c-1,0.8-2.7,2.3-5.2,4.4c-2.5,2.1-4.9,4.3-7.3,6.6c-2.9,2.6-6,5.6-9.5,8.9l0,0l-14.7-14.7c-2-2-3.5-3.6-4.3-4.6c-1.6-1.4-3.8-2.6-6.4-3.5c-2.6-0.9-4.9-0.4-6.7,1.7c-1.6,2.2-2,4.4-1.2,6.6c0.8,2.1,1.7,3.8,2.7,5.1l4.6,4.3c2.2,2.5,4.7,5.1,7.3,8c3.1,3.3,6.4,6.7,10.1,10.4l-0.3,6.4H99c-1.8,0-3.4,0.7-4.7,2.1c-1.3,1.4-2,3-2,4.6s0.6,3.1,1.8,4.3c1.2,1.2,2.9,1.8,4.9,1.8h20.8v10.7H99c-1.8,0-3.4,0.6-4.7,1.7c-1.3,1.1-2,2.6-2,4.4c-0.2,1.6,0.4,3,1.7,4.1c1.3,1.1,3,1.7,5.1,1.7h20.8v6.1c0.2,2.9,1.1,4.8,2.7,6c1.6,1.1,3.7,1.7,6.1,1.7c2.5,0.2,4.4-0.6,6-2.3c1.5-1.7,2.3-3.5,2.3-5.4v-6.1h21.4c2,0,3.7-0.5,5.1-1.4c1.3-0.9,1.9-2.4,1.7-4.4C165.2,184.2,162.4,182,156.7,182z"/></g></g>
</svg>