<svg width="28" height="28" viewBox="0 0 28 28" fill="none" xmlns="http://www.w3.org/2000/svg">
<g clip-path="url(#clip0_1112_89)">
<path d="M6.9195 8.09201L8.407 13.0492M14.9485 19.593L19.908 21.0805" stroke="white" stroke-width="1.5" stroke-linecap="round" stroke-linejoin="round"/>
<path d="M13.6302 14.3698L20.349 7.651" stroke="white" stroke-width="1.5" stroke-linecap="round" stroke-linejoin="round"/>
<path d="M6.41666 8.16666C7.38316 8.16666 8.16666 7.38315 8.16666 6.41666C8.16666 5.45016 7.38316 4.66666 6.41666 4.66666C5.45017 4.66666 4.66666 5.45016 4.66666 6.41666C4.66666 7.38315 5.45017 8.16666 6.41666 8.16666Z" stroke="white" stroke-width="1.5" stroke-linecap="round" stroke-linejoin="round"/>
<path d="M21.5833 8.16666C22.5498 8.16666 23.3333 7.38315 23.3333 6.41666C23.3333 5.45016 22.5498 4.66666 21.5833 4.66666C20.6168 4.66666 19.8333 5.45016 19.8333 6.41666C19.8333 7.38315 20.6168 8.16666 21.5833 8.16666Z" stroke="white" stroke-width="1.5" stroke-linecap="round" stroke-linejoin="round"/>
<path d="M21.5833 23.3333C22.5498 23.3333 23.3333 22.5498 23.3333 21.5833C23.3333 20.6168 22.5498 19.8333 21.5833 19.8333C20.6168 19.8333 19.8333 20.6168 19.8333 21.5833C19.8333 22.5498 20.6168 23.3333 21.5833 23.3333Z" stroke="white" stroke-width="1.5" stroke-linecap="round" stroke-linejoin="round"/>
<path d="M9.91666 23.3333C12.8162 23.3333 15.1667 20.9828 15.1667 18.0833C15.1667 15.1838 12.8162 12.8333 9.91666 12.8333C7.01717 12.8333 4.66666 15.1838 4.66666 18.0833C4.66666 20.9828 7.01717 23.3333 9.91666 23.3333Z" stroke="white" stroke-width="1.5" stroke-linecap="round" stroke-linejoin="round"/>
</g>
<defs>
<clipPath id="clip0_1112_89">
<rect width="28" height="28" fill="white"/>
</clipPath>
</defs>
</svg>
