<svg width="28" height="28" viewBox="0 0 28 28" fill="none" xmlns="http://www.w3.org/2000/svg">
<g clip-path="url(#clip0_1111_430)">
<path d="M10.8122 10.5311C11.7787 8.85705 11.2051 6.71648 9.53109 5.74999C7.85706 4.78349 5.7165 5.35705 4.75 7.03108C3.7835 8.7051 4.35706 10.8457 6.03109 11.8122C7.70511 12.7787 9.84568 12.2051 10.8122 10.5311Z" stroke="white" stroke-width="1.5" stroke-linecap="round" stroke-linejoin="round"/>
<path d="M22.8221 10.7293C23.7886 9.05523 23.215 6.91467 21.541 5.94817C19.867 4.98167 17.7264 5.55523 16.7599 7.22926C15.7934 8.90328 16.367 11.0438 18.041 12.0103C19.715 12.9768 21.8556 12.4033 22.8221 10.7293Z" stroke="white" stroke-width="1.5" stroke-linecap="round" stroke-linejoin="round"/>
<path d="M16.9888 20.8329C17.9553 19.1589 17.3817 17.0183 15.7077 16.0518C14.0337 15.0853 11.8931 15.6589 10.9266 17.3329C9.96011 19.0069 10.5337 21.1475 12.2077 22.114C13.8817 23.0805 16.0223 22.5069 16.9888 20.8329Z" stroke="white" stroke-width="1.5" stroke-linecap="round" stroke-linejoin="round"/>
</g>
<defs>
<clipPath id="clip0_1111_430">
<rect width="28" height="28" fill="white"/>
</clipPath>
</defs>
</svg>
