<svg width="28" height="28" viewBox="0 0 28 28" fill="none" xmlns="http://www.w3.org/2000/svg">
<g clip-path="url(#clip0_1006_108)">
<path d="M9.33333 4.66667H7C5.71133 4.66667 4.66666 5.71134 4.66666 7.00001V8.16667C4.66666 9.45534 5.71133 10.5 7 10.5H9.33333C10.622 10.5 11.6667 9.45534 11.6667 8.16667V7.00001C11.6667 5.71134 10.622 4.66667 9.33333 4.66667Z" stroke="currentColor" stroke-width="1.5" stroke-linecap="round" stroke-linejoin="round"/>
<path d="M9.33333 15.1667H7C5.71133 15.1667 4.66666 16.2113 4.66666 17.5V21C4.66666 22.2887 5.71133 23.3333 7 23.3333H9.33333C10.622 23.3333 11.6667 22.2887 11.6667 21V17.5C11.6667 16.2113 10.622 15.1667 9.33333 15.1667Z" stroke="currentColor" stroke-width="1.5" stroke-linecap="round" stroke-linejoin="round"/>
<path d="M21 4.66667H18.6667C17.378 4.66667 16.3333 5.71134 16.3333 7.00001V21C16.3333 22.2887 17.378 23.3333 18.6667 23.3333H21C22.2887 23.3333 23.3333 22.2887 23.3333 21V7.00001C23.3333 5.71134 22.2887 4.66667 21 4.66667Z" stroke="currentColor" stroke-width="1.5" stroke-linecap="round" stroke-linejoin="round"/>
</g>
<defs>
<clipPath id="clip0_1006_108">
<rect width="28" height="28" fill="currentColor"/>
</clipPath>
</defs>
</svg>
