<svg width="28" height="28" viewBox="0 0 28 28" fill="none" xmlns="http://www.w3.org/2000/svg">
<g clip-path="url(#clip0_1112_125)">
<path d="M11.6667 14H10.5V19.8333H11.6667" stroke="white" stroke-width="1.5" stroke-linecap="round" stroke-linejoin="round"/>
<path d="M16.3333 14H17.5V19.8333H16.3333" stroke="white" stroke-width="1.5" stroke-linecap="round" stroke-linejoin="round"/>
<path d="M16.3333 3.5V8.16667C16.3333 8.47609 16.4562 8.77283 16.675 8.99162C16.8938 9.21042 17.1906 9.33333 17.5 9.33333H22.1667" stroke="white" stroke-width="1.5" stroke-linecap="round" stroke-linejoin="round"/>
<path d="M19.8333 24.5H8.16667C7.54783 24.5 6.95434 24.2542 6.51675 23.8166C6.07917 23.379 5.83334 22.7855 5.83334 22.1667V5.83333C5.83334 5.21449 6.07917 4.621 6.51675 4.18342C6.95434 3.74583 7.54783 3.5 8.16667 3.5H16.3333L22.1667 9.33333V22.1667C22.1667 22.7855 21.9208 23.379 21.4833 23.8166C21.0457 24.2542 20.4522 24.5 19.8333 24.5Z" stroke="white" stroke-width="1.5" stroke-linecap="round" stroke-linejoin="round"/>
</g>
<defs>
<clipPath id="clip0_1112_125">
<rect width="28" height="28" fill="white"/>
</clipPath>
</defs>
</svg>
