<svg width="28" height="28" viewBox="0 0 28 28" fill="none" xmlns="http://www.w3.org/2000/svg">
<g clip-path="url(#clip0_1112_112)">
<path d="M22.1667 8.16669H5.83333C4.54467 8.16669 3.5 9.21136 3.5 10.5V21C3.5 22.2887 4.54467 23.3334 5.83333 23.3334H22.1667C23.4553 23.3334 24.5 22.2887 24.5 21V10.5C24.5 9.21136 23.4553 8.16669 22.1667 8.16669Z" stroke="white" stroke-width="1.5" stroke-linecap="round" stroke-linejoin="round"/>
<path d="M9.33334 8.16667V5.83333C9.33334 5.21449 9.57917 4.621 10.0168 4.18342C10.4543 3.74583 11.0478 3.5 11.6667 3.5H16.3333C16.9522 3.5 17.5457 3.74583 17.9833 4.18342C18.4208 4.621 18.6667 5.21449 18.6667 5.83333V8.16667" stroke="white" stroke-width="1.5" stroke-linecap="round" stroke-linejoin="round"/>
<path d="M14 14V14.0117" stroke="white" stroke-width="1.5" stroke-linecap="round" stroke-linejoin="round"/>
<path d="M3.5 15.1667C6.75684 16.8078 10.353 17.6627 14 17.6627C17.647 17.6627 21.2432 16.8078 24.5 15.1667" stroke="white" stroke-width="1.5" stroke-linecap="round" stroke-linejoin="round"/>
</g>
<defs>
<clipPath id="clip0_1112_112">
<rect width="28" height="28" fill="white"/>
</clipPath>
</defs>
</svg>
