<svg width="28" height="28" viewBox="0 0 28 28" fill="none" xmlns="http://www.w3.org/2000/svg">
<g clip-path="url(#clip0_1006_166)">
<path d="M16.3333 9.33332V6.99999C16.3333 6.38115 16.0875 5.78766 15.6499 5.35007C15.2123 4.91249 14.6188 4.66666 14 4.66666H5.83333C5.21449 4.66666 4.621 4.91249 4.18342 5.35007C3.74583 5.78766 3.5 6.38115 3.5 6.99999V21C3.5 21.6188 3.74583 22.2123 4.18342 22.6499C4.621 23.0875 5.21449 23.3333 5.83333 23.3333H14C14.6188 23.3333 15.2123 23.0875 15.6499 22.6499C16.0875 22.2123 16.3333 21.6188 16.3333 21V18.6667" stroke="white" stroke-width="1.5" stroke-linecap="round" stroke-linejoin="round"/>
<path d="M8.16666 14H23.3333L19.8333 10.5M19.8333 17.5L23.3333 14" stroke="currentColor" stroke-width="1.5" stroke-linecap="round" stroke-linejoin="round"/>
</g>
<defs>
<clipPath id="clip0_1006_166">
<rect width="28" height="28" fill="currentColor"/>
</clipPath>
</defs>
</svg>
