<svg width="38" height="38" viewBox="0 0 38 38" fill="none" xmlns="http://www.w3.org/2000/svg">
<g clip-path="url(#clip0_1036_486)">
<path d="M19.0092 0.397461C11.2415 0.397461 8.96974 0.405474 8.52815 0.442107C6.93409 0.574616 5.94217 0.825609 4.86153 1.36366C4.02872 1.77721 3.37193 2.25659 2.72371 2.92857C1.54319 4.15406 0.827727 5.66174 0.568728 7.45389C0.442806 8.32393 0.406174 8.50137 0.398733 12.9454C0.395871 14.4268 0.398733 16.3763 0.398733 18.9913C0.398733 26.7529 0.407318 29.0224 0.444523 29.4632C0.573307 31.0143 0.816565 31.9903 1.3317 33.0578C2.31618 35.1012 4.19643 36.6352 6.41151 37.2076C7.17849 37.4051 8.02561 37.5138 9.11312 37.5654C9.57388 37.5854 14.2702 37.5997 18.9694 37.5997C23.6686 37.5997 28.3678 37.594 28.8171 37.5711C30.0763 37.5118 30.8075 37.4137 31.616 37.2048C33.8454 36.6295 35.6913 35.1184 36.6958 33.0463C37.2009 32.0046 37.457 30.9915 37.5729 29.5213C37.5981 29.2007 37.6087 24.0901 37.6087 18.9864C37.6087 13.8818 37.5973 8.78069 37.5721 8.46016C37.4548 6.96622 37.1986 5.96167 36.6772 4.89989C36.2493 4.03071 35.7743 3.38162 35.0845 2.71793C33.8537 1.54224 32.3483 0.826754 30.5545 0.568033C29.6854 0.442394 29.5122 0.405188 25.0649 0.397461H19.0092Z" fill="url(#paint0_radial_1036_486)"/>
<path d="M19.0092 0.397461C11.2415 0.397461 8.96974 0.405474 8.52815 0.442107C6.93409 0.574616 5.94217 0.825609 4.86153 1.36366C4.02872 1.77721 3.37193 2.25659 2.72371 2.92857C1.54319 4.15406 0.827727 5.66174 0.568728 7.45389C0.442806 8.32393 0.406174 8.50137 0.398733 12.9454C0.395871 14.4268 0.398733 16.3763 0.398733 18.9913C0.398733 26.7529 0.407318 29.0224 0.444523 29.4632C0.573307 31.0143 0.816565 31.9903 1.3317 33.0578C2.31618 35.1012 4.19643 36.6352 6.41151 37.2076C7.17849 37.4051 8.02561 37.5138 9.11312 37.5654C9.57388 37.5854 14.2702 37.5997 18.9694 37.5997C23.6686 37.5997 28.3678 37.594 28.8171 37.5711C30.0763 37.5118 30.8075 37.4137 31.616 37.2048C33.8454 36.6295 35.6913 35.1184 36.6958 33.0463C37.2009 32.0046 37.457 30.9915 37.5729 29.5213C37.5981 29.2007 37.6087 24.0901 37.6087 18.9864C37.6087 13.8818 37.5973 8.78069 37.5721 8.46016C37.4548 6.96622 37.1986 5.96167 36.6772 4.89989C36.2493 4.03071 35.7743 3.38162 35.0845 2.71793C33.8537 1.54224 32.3483 0.826754 30.5545 0.568033C29.6854 0.442394 29.5122 0.405188 25.0649 0.397461H19.0092Z" fill="url(#paint1_radial_1036_486)"/>
<path d="M19.002 -2.25C13.2308 -2.25 12.5065 -2.22477 10.2398 -2.12161C7.97755 -2.01802 6.43337 -1.65987 5.08221 -1.13437C3.68457 -0.591614 2.49898 0.134427 1.31782 1.31602C0.13578 2.49716 -0.59027 3.68273 -1.13481 5.07992C-1.66163 6.43151 -2.02023 7.97612 -2.12206 10.2375C-2.22344 12.5041 -2.25 13.2289 -2.25 19C-2.25 24.7711 -2.22432 25.4932 -2.12161 27.7599C-2.01758 30.0221 -1.65942 31.5663 -1.13436 32.9174C-0.591154 34.3151 0.134895 35.5006 1.3165 36.6818C2.49721 37.8638 3.6828 38.5916 5.07956 39.1344C6.4316 39.6599 7.97623 40.018 10.238 40.1216C12.5047 40.2248 13.2286 40.25 18.9993 40.25C24.771 40.25 25.4931 40.2248 27.7597 40.1216C30.022 40.018 31.568 39.6599 32.92 39.1344C34.3172 38.5916 35.501 37.8638 36.6817 36.6818C37.8638 35.5006 38.5898 34.3151 39.1344 32.9179C39.6568 31.5663 40.0154 30.0217 40.1216 27.7603C40.2234 25.4936 40.25 24.7711 40.25 19C40.25 13.2289 40.2234 12.5046 40.1216 10.2379C40.0154 7.97568 39.6568 6.43151 39.1344 5.08036C38.5898 3.68273 37.8638 2.49716 36.6817 1.31602C35.4997 0.133985 34.3176 -0.592057 32.9187 -1.13437C31.564 -1.65987 30.0189 -2.01802 27.7566 -2.12161C25.4899 -2.22477 24.7683 -2.25 18.9954 -2.25H19.002ZM17.0957 1.57943C17.6615 1.57854 18.2928 1.57943 19.002 1.57943C24.6758 1.57943 25.3483 1.59979 27.5889 1.70161C29.6607 1.79635 30.7852 2.14255 31.5343 2.43341C32.526 2.81857 33.233 3.27898 33.9763 4.02273C34.7201 4.76648 35.1805 5.47482 35.5665 6.46648C35.8574 7.21466 36.204 8.33914 36.2983 10.411C36.4002 12.6511 36.4223 13.324 36.4223 18.9951C36.4223 24.6662 36.4002 25.3391 36.2983 27.5792C36.2036 29.6511 35.8574 30.7756 35.5665 31.5238C35.1814 32.5154 34.7201 33.2216 33.9763 33.9649C33.2326 34.7086 32.5264 35.169 31.5343 35.5542C30.7861 35.8464 29.6607 36.1917 27.5889 36.2864C25.3487 36.3883 24.6758 36.4104 19.002 36.4104C13.3277 36.4104 12.6553 36.3883 10.4151 36.2864C8.34324 36.1908 7.21874 35.8446 6.46923 35.5538C5.47755 35.1686 4.76921 34.7082 4.02546 33.9644C3.2817 33.2207 2.82128 32.5141 2.43523 31.522C2.14437 30.7738 1.79772 29.6493 1.70343 27.5775C1.6016 25.3374 1.58124 24.6645 1.58124 18.9898C1.58124 13.3152 1.6016 12.6458 1.70343 10.4057C1.79817 8.33383 2.14437 7.20935 2.43523 6.46029C2.82039 5.46862 3.2817 4.76029 4.02546 4.01654C4.76921 3.27279 5.47755 2.81237 6.46923 2.42633C7.2183 2.13414 8.34324 1.78883 10.4151 1.69365C12.3755 1.6051 13.1352 1.57854 17.0957 1.57411V1.57943ZM30.3452 5.10781C28.9374 5.10781 27.7952 6.24867 27.7952 7.65693C27.7952 9.06474 28.9374 10.2069 30.3452 10.2069C31.753 10.2069 32.8952 9.06474 32.8952 7.65693C32.8952 6.24911 31.753 5.10693 30.3452 5.10693V5.10781ZM19.002 8.08724C12.9753 8.08724 8.08912 12.9734 8.08912 19C8.08912 25.0266 12.9753 29.9105 19.002 29.9105C25.0286 29.9105 29.9131 25.0266 29.9131 19C29.9131 12.9734 25.0282 8.08724 19.0015 8.08724H19.002ZM19.002 11.9167C22.9138 11.9167 26.0854 15.0878 26.0854 19C26.0854 22.9118 22.9138 26.0833 19.002 26.0833C15.0897 26.0833 11.9186 22.9118 11.9186 19C11.9186 15.0878 15.0897 11.9167 19.002 11.9167V11.9167Z" fill="white"/>
</g>
<defs>
<radialGradient id="paint0_radial_1036_486" cx="0" cy="0" r="1" gradientUnits="userSpaceOnUse" gradientTransform="translate(10.2817 40.4651) rotate(-90) scale(36.8702 34.3005)">
<stop stop-color="#FFDD55"/>
<stop offset="0.1" stop-color="#FFDD55"/>
<stop offset="0.5" stop-color="#FF543E"/>
<stop offset="1" stop-color="#C837AB"/>
</radialGradient>
<radialGradient id="paint1_radial_1036_486" cx="0" cy="0" r="1" gradientUnits="userSpaceOnUse" gradientTransform="translate(-5.83562 3.07745) rotate(78.678) scale(16.4813 67.9517)">
<stop stop-color="#3771C8"/>
<stop offset="0.128" stop-color="#3771C8"/>
<stop offset="1" stop-color="#6600FF" stop-opacity="0"/>
</radialGradient>
<clipPath id="clip0_1036_486">
<rect width="37.7778" height="37.7778" fill="white" transform="translate(0.111328 0.111328)"/>
</clipPath>
</defs>
</svg>
