<svg width="96" height="32" viewBox="0 0 96 32" fill="none" xmlns="http://www.w3.org/2000/svg">
<g clip-path="url(#clip0_1013_1656)">
<path d="M44.1848 8.24976V22.3913H42.5114L42.4905 20.9189C41.727 21.9707 40.3402 22.6164 38.692 22.6164C35.8389 22.6164 33.7703 20.555 33.7703 17.4019C33.7703 14.2488 35.8389 12.1874 38.692 12.1874C40.221 12.1874 41.5262 12.7343 42.3106 13.6599V8.24976H44.1848ZM42.3169 17.404C42.3169 15.3637 40.9301 13.927 38.9807 13.927C37.0312 13.927 35.6444 15.3637 35.6444 17.404C35.6444 19.4444 37.0312 20.879 38.9807 20.879C40.9301 20.879 42.3169 19.4465 42.3169 17.404Z" fill="url(#paint0_linear_1013_1656)"/>
<path d="M46.7576 9.46145C46.7709 9.13262 46.9101 8.82169 47.1462 8.59375C47.3822 8.36581 47.6968 8.23853 48.0241 8.23853C48.3513 8.23853 48.6659 8.36581 48.902 8.59375C49.1381 8.82169 49.2773 9.13262 49.2906 9.46145C49.2773 9.79029 49.1381 10.1012 48.902 10.3292C48.6659 10.5571 48.3513 10.6844 48.0241 10.6844C47.6968 10.6844 47.3822 10.5571 47.1462 10.3292C46.9101 10.1012 46.7709 9.79029 46.7576 9.46145ZM47.0797 12.4063H48.9476V22.3914H47.0797V12.4063Z" fill="url(#paint1_linear_1013_1656)"/>
<path d="M51.8424 8.24976H53.7103V22.3913H51.8424V8.24976Z" fill="url(#paint2_linear_1013_1656)"/>
<path d="M56.2831 9.46145C56.2964 9.13262 56.4356 8.82169 56.6717 8.59375C56.9077 8.36581 57.2223 8.23853 57.5496 8.23853C57.8769 8.23853 58.1914 8.36581 58.4275 8.59375C58.6636 8.82169 58.8028 9.13262 58.8161 9.46145C58.8028 9.79029 58.6636 10.1012 58.4275 10.3292C58.1914 10.5571 57.8769 10.6844 57.5496 10.6844C57.2223 10.6844 56.9077 10.5571 56.6717 10.3292C56.4356 10.1012 56.2964 9.79029 56.2831 9.46145ZM56.6052 12.4063H58.4731V22.3914H56.6052V12.4063Z" fill="url(#paint3_linear_1013_1656)"/>
<path d="M68.5612 21.1819C70.2492 21.7498 71.1947 22.8794 71.1947 24.3749C71.1947 26.8213 69.1448 28.4178 65.9885 28.4178C62.8321 28.4178 60.7446 26.6593 60.845 24.072H62.6941C62.6334 25.6286 63.9805 26.6782 65.9885 26.6782C67.9965 26.6782 69.3352 25.7695 69.3352 24.3749C69.3352 23.0224 68.0697 22.1537 66.0408 22.1537C62.784 22.1537 60.7153 20.2332 60.7153 17.2021C60.7153 14.333 62.9451 12.2316 65.9801 12.2316C67.0845 12.2316 68.0718 12.4735 68.7934 12.9384L70.0798 11.3818L71.4248 12.4336L70.0589 14.049C70.9437 15.1008 71.2846 16.0095 71.2846 17.2042C71.2742 19.0805 70.289 20.4982 68.5612 21.1819ZM69.3979 17.2021C69.3979 15.2627 68.0509 13.9691 65.9801 13.9691C63.9512 13.9691 62.5644 15.2817 62.5644 17.2021C62.5644 19.1226 63.9407 20.4351 65.9885 20.4351C67.9986 20.4351 69.4063 19.1015 69.4063 17.2021H69.3979Z" fill="url(#paint4_linear_1013_1656)"/>
<path d="M73.3094 9.46132C73.3094 9.1238 73.4428 8.80011 73.6801 8.56146C73.9174 8.3228 74.2393 8.18872 74.5749 8.18872C74.9105 8.18872 75.2324 8.3228 75.4697 8.56146C75.7071 8.80011 75.8404 9.1238 75.8404 9.46132C75.8404 9.79883 75.7071 10.1225 75.4697 10.3612C75.2324 10.5998 74.9105 10.7339 74.5749 10.7339C74.2393 10.7339 73.9174 10.5998 73.6801 10.3612C73.4428 10.1225 73.3094 9.79883 73.3094 9.46132ZM73.6316 12.4062H75.4994V22.3913H73.6316V12.4062Z" fill="url(#paint5_linear_1013_1656)"/>
<path d="M84.7593 22.0716C84.0985 22.3814 83.3778 22.5402 82.6487 22.5365C80.5571 22.5365 79.5112 21.3249 79.5112 19.0805V14.049H77.5618V12.4125H79.5112V9.72426L81.3582 9.51392V12.4041H84.3723V14.0406H81.3624V19.0721C81.3624 20.1848 81.7807 20.8306 82.8705 20.8306C83.3359 20.8102 83.7932 20.7002 84.2175 20.5066L84.7593 22.0716Z" fill="url(#paint6_linear_1013_1656)"/>
<path d="M95.9728 18.1507H87.7546C87.9345 19.8692 89.2418 20.9209 91.1494 20.9209C92.3563 20.9209 93.582 20.4561 94.1635 19.7472L95.3704 20.8999C94.425 21.9916 92.8186 22.6584 91.1097 22.6584C87.9157 22.6584 85.824 20.576 85.824 17.3998C85.824 14.3287 87.8738 12.2063 90.9089 12.2063C94.3246 12.2105 96.2531 14.4738 95.9728 18.1507ZM87.7734 16.5542H94.2033C94.0443 14.9387 92.8186 13.887 90.9695 13.887C89.2209 13.887 88.0746 14.8777 87.7734 16.5542Z" fill="url(#paint7_linear_1013_1656)"/>
<path d="M9.58618 15.9149C9.58618 18.0436 10.9709 19.4908 12.8848 19.4908C14.2506 19.4908 15.3362 18.8282 15.8926 17.7596C14.1388 16.3185 12.5523 14.6828 11.1633 12.8838C10.1928 13.4791 9.58618 14.5666 9.58618 15.9149Z" fill="url(#paint8_linear_1013_1656)"/>
<path d="M15.8926 17.7638C16.1726 17.2162 16.3162 16.6084 16.3109 15.9926C16.3109 13.866 14.9053 12.4168 12.9308 12.4168C12.3117 12.4092 11.7024 12.5729 11.1696 12.89C12.5567 14.688 14.141 16.3229 15.8926 17.7638Z" fill="url(#paint9_linear_1013_1656)"/>
<path d="M2.24229 6.46187C2.24242 11.1271 3.464 15.7102 5.78419 19.7501C8.10438 23.79 11.4414 27.1443 15.4596 29.4759L15.9073 29.7346L16.3549 29.4759C19.3346 27.7479 21.9494 25.4505 24.0523 22.7132C22.001 21.8354 20.0395 20.759 18.1956 19.4991V23.0876H16.426V19.1899H16.3842C15.9135 20.2564 14.5017 21.2366 12.7007 21.2366C9.787 21.2366 7.68067 19.171 7.68067 15.9779C7.68067 13.8745 8.59892 12.2296 10.0505 11.3629C8.51272 9.07578 7.34436 6.55837 6.58881 3.90405C5.07928 4.45306 3.62065 5.1344 2.22974 5.9402L2.24229 6.46187Z" fill="url(#paint10_linear_1013_1656)"/>
<path d="M12.661 10.6794C14.4724 10.6794 15.8152 11.6196 16.4051 12.7429H16.4469C16.3653 11.9856 16.3821 11.0601 16.3821 10.2187L16.3319 7.91752H18.1977V12.4673C18.4554 11.9235 18.8636 11.4661 19.3734 11.1497C19.8831 10.8333 20.4727 10.6715 21.0716 10.6836C21.5182 10.6778 21.9625 10.7489 22.3852 10.8939L21.8832 12.5914C21.5827 12.4718 21.2608 12.4159 20.9378 12.4273C19.3355 12.4273 18.2018 13.7147 18.2018 15.6814V15.9296V19.5055C20.0458 20.7654 22.0073 21.8418 24.0586 22.7196C27.6383 18.0671 29.5806 12.3509 29.5806 6.46823V5.94658C25.4255 3.53566 20.7127 2.26685 15.9156 2.26762C13.5428 2.26362 11.1795 2.57051 8.88547 3.18052C8.11573 3.39087 7.35227 3.63066 6.59717 3.90411C7.35272 6.55843 8.52108 9.07584 10.0589 11.363C10.8491 10.9032 11.7482 10.667 12.661 10.6794ZM17.2627 5.01474C17.415 5.00815 17.567 5.03261 17.7096 5.08667C17.8522 5.14073 17.9825 5.22325 18.0926 5.32928C18.2027 5.43531 18.2902 5.56264 18.3501 5.70361C18.4099 5.84459 18.4408 5.99628 18.4408 6.14956C18.4408 6.30284 18.4099 6.45453 18.3501 6.5955C18.2902 6.73647 18.2027 6.86381 18.0926 6.96984C17.9825 7.07586 17.8522 7.15839 17.7096 7.21245C17.567 7.2665 17.415 7.29097 17.2627 7.28438C17.0898 7.28556 16.9187 7.24971 16.7607 7.1792C16.8391 7.20781 16.922 7.22206 17.0054 7.22127C17.1743 7.22127 17.3363 7.15379 17.4558 7.03367C17.5752 6.91356 17.6423 6.75064 17.6423 6.58077C17.6423 6.4109 17.5752 6.24798 17.4558 6.12786C17.3363 6.00774 17.1743 5.94026 17.0054 5.94026C16.8738 5.94103 16.7456 5.98217 16.6379 6.05817C16.5302 6.13417 16.4481 6.24142 16.4027 6.36558C16.3572 6.48974 16.3505 6.6249 16.3834 6.753C16.4164 6.8811 16.4874 6.99603 16.5871 7.08245C16.3945 6.93905 16.2517 6.73827 16.1791 6.50864C16.1065 6.27901 16.1076 6.03219 16.1824 5.80326C16.2572 5.57433 16.4019 5.37493 16.5958 5.23337C16.7897 5.09182 17.0231 5.01532 17.2627 5.01474ZM16.5452 6.58182C16.5435 6.52552 16.5531 6.46946 16.5734 6.41695C16.5937 6.36444 16.6242 6.31657 16.6632 6.27615C16.7022 6.23574 16.7489 6.20362 16.8005 6.18169C16.8521 6.15977 16.9076 6.14848 16.9636 6.14851C17.0216 6.14497 17.0798 6.15365 17.1344 6.174C17.1889 6.19436 17.2387 6.22593 17.2804 6.26671C17.3221 6.30749 17.355 6.35658 17.3768 6.41084C17.3986 6.4651 17.4089 6.52333 17.407 6.58182C17.4071 6.63926 17.3955 6.69611 17.3729 6.74887C17.3504 6.80162 17.3173 6.84917 17.2757 6.88859C17.2342 6.928 17.1851 6.95844 17.1314 6.97804C17.0777 6.99763 17.0206 7.00596 16.9636 7.00251C16.9084 7.00279 16.8538 6.99211 16.8028 6.9711C16.7518 6.95008 16.7055 6.91914 16.6664 6.88004C16.6273 6.84095 16.5963 6.79448 16.5752 6.7433C16.554 6.69212 16.5431 6.63724 16.5431 6.58182H16.5452Z" fill="url(#paint11_linear_1013_1656)"/>
<path d="M25.7236 23.3821L25.5144 23.3042C23.0508 26.6251 19.9407 29.407 16.3737 31.4804L15.9073 31.7518L15.4429 31.4804C10.8213 28.7878 6.98282 24.9233 4.31048 20.2727C1.63813 15.6221 0.225427 10.348 0.213353 4.97676V4.43617C2.08144 3.35691 4.05529 2.47439 6.10354 1.80263C6.0889 1.73111 6.07426 1.6617 6.06171 1.59229C3.97149 2.27779 1.95758 3.17938 0.0522921 4.28262L0 4.31417V4.97886C0.011776 10.3877 1.43422 15.6989 4.12533 20.382C6.81643 25.0652 10.682 28.9566 15.3362 31.6676L15.9073 32L16.4804 31.6676C20.0909 29.5684 23.2364 26.7488 25.7236 23.3821Z" fill="url(#paint12_linear_1013_1656)"/>
<path d="M15.9072 0.212449C21.4119 0.214162 26.8203 1.66452 31.5949 4.41938V4.95997C31.5856 11.5728 29.4504 18.0054 25.5081 23.298L25.7172 23.3758C29.6644 18.0556 31.8011 11.5977 31.8103 4.95997V4.30158L31.7539 4.27003C26.933 1.4742 21.4661 0.00166985 15.901 0C12.5576 0.00239749 9.23555 0.535525 6.0575 1.5797C6.07005 1.65122 6.08469 1.72063 6.09933 1.79005C9.26506 0.745727 12.5755 0.213238 15.9072 0.212449Z" fill="url(#paint13_linear_1013_1656)"/>
</g>
<defs>
<linearGradient id="paint0_linear_1013_1656" x1="33.7765" y1="15.4331" x2="44.1848" y2="15.4331" gradientUnits="userSpaceOnUse">
<stop stop-color="#F57B1C"/>
<stop offset="1" stop-color="#CB3C23"/>
</linearGradient>
<linearGradient id="paint1_linear_1013_1656" x1="46.7576" y1="15.3028" x2="49.2906" y2="15.3028" gradientUnits="userSpaceOnUse">
<stop stop-color="#F57B1C"/>
<stop offset="1" stop-color="#CB3C23"/>
</linearGradient>
<linearGradient id="paint2_linear_1013_1656" x1="51.8424" y1="15.3216" x2="53.7103" y2="15.3216" gradientUnits="userSpaceOnUse">
<stop stop-color="#F57B1C"/>
<stop offset="1" stop-color="#CB3C23"/>
</linearGradient>
<linearGradient id="paint3_linear_1013_1656" x1="56.2831" y1="15.3028" x2="58.8161" y2="15.3028" gradientUnits="userSpaceOnUse">
<stop stop-color="#F57B1C"/>
<stop offset="1" stop-color="#CB3C23"/>
</linearGradient>
<linearGradient id="paint4_linear_1013_1656" x1="60.7049" y1="19.8988" x2="71.4143" y2="19.8988" gradientUnits="userSpaceOnUse">
<stop stop-color="#F57B1C"/>
<stop offset="1" stop-color="#CB3C23"/>
</linearGradient>
<linearGradient id="paint5_linear_1013_1656" x1="73.3053" y1="15.3026" x2="75.8362" y2="15.3026" gradientUnits="userSpaceOnUse">
<stop stop-color="#F57B1C"/>
<stop offset="1" stop-color="#CB3C23"/>
</linearGradient>
<linearGradient id="paint6_linear_1013_1656" x1="77.566" y1="16.0304" x2="84.7593" y2="16.0304" gradientUnits="userSpaceOnUse">
<stop stop-color="#F57B1C"/>
<stop offset="1" stop-color="#CB3C23"/>
</linearGradient>
<linearGradient id="paint7_linear_1013_1656" x1="85.824" y1="17.4334" x2="96" y2="17.4334" gradientUnits="userSpaceOnUse">
<stop stop-color="#F57B1C"/>
<stop offset="1" stop-color="#CB3C23"/>
</linearGradient>
<linearGradient id="paint8_linear_1013_1656" x1="9.5843" y1="16.178" x2="16.3002" y2="16.178" gradientUnits="userSpaceOnUse">
<stop stop-color="#F57B1C"/>
<stop offset="1" stop-color="#CB3C23"/>
</linearGradient>
<linearGradient id="paint9_linear_1013_1656" x1="9.58427" y1="15.0905" x2="16.3002" y2="15.0905" gradientUnits="userSpaceOnUse">
<stop stop-color="#F57B1C"/>
<stop offset="1" stop-color="#CB3C23"/>
</linearGradient>
<linearGradient id="paint10_linear_1013_1656" x1="2.24229" y1="16.8193" x2="29.5743" y2="16.8193" gradientUnits="userSpaceOnUse">
<stop stop-color="#FB9E18"/>
<stop offset="0.13" stop-color="#F3711D"/>
<stop offset="0.25" stop-color="#EB4123"/>
<stop offset="0.54" stop-color="#E54023"/>
<stop offset="0.59" stop-color="#DC3F23"/>
<stop offset="0.66" stop-color="#C53A22"/>
<stop offset="0.76" stop-color="#9E3422"/>
<stop offset="0.87" stop-color="#682B21"/>
<stop offset="1" stop-color="#231F20"/>
</linearGradient>
<linearGradient id="paint11_linear_1013_1656" x1="2.24228" y1="12.4862" x2="29.5743" y2="12.4862" gradientUnits="userSpaceOnUse">
<stop stop-color="#F57B1C"/>
<stop offset="1" stop-color="#CB3C23"/>
</linearGradient>
<linearGradient id="paint12_linear_1013_1656" x1="-0.000209169" y1="16.6711" x2="31.8073" y2="16.6711" gradientUnits="userSpaceOnUse">
<stop stop-color="#F57B1C"/>
<stop offset="1" stop-color="#CB3C23"/>
</linearGradient>
<linearGradient id="paint13_linear_1013_1656" x1="-0.000235432" y1="11.7918" x2="31.8073" y2="11.7918" gradientUnits="userSpaceOnUse">
<stop stop-color="#F57B1C"/>
<stop offset="1" stop-color="#CB3C23"/>
</linearGradient>
<clipPath id="clip0_1013_1656">
<rect width="96" height="32" fill="white"/>
</clipPath>
</defs>
</svg>
