<svg width="28" height="28" viewBox="0 0 28 28" fill="none" xmlns="http://www.w3.org/2000/svg">
<g clip-path="url(#clip0_1031_449)">
<path d="M9.33334 18.6668V14.0002C9.33334 12.7625 9.825 11.5755 10.7002 10.7003C11.5753 9.82516 12.7623 9.3335 14 9.3335C15.2377 9.3335 16.4247 9.82516 17.2998 10.7003C18.175 11.5755 18.6667 12.7625 18.6667 14.0002V18.6668" stroke="currentColor" stroke-width="1.5" stroke-linecap="round" stroke-linejoin="round"/>
<path d="M3.5 14H4.66667M14 3.5V4.66667M23.3333 14H24.5M6.53333 6.53333L7.35 7.35M21.4667 6.53333L20.65 7.35" stroke="currentColor" stroke-width="1.5" stroke-linecap="round" stroke-linejoin="round"/>
<path d="M19.8333 18.6665H8.16667C7.52233 18.6665 7 19.1888 7 19.8332V22.1665C7 22.8108 7.52233 23.3332 8.16667 23.3332H19.8333C20.4777 23.3332 21 22.8108 21 22.1665V19.8332C21 19.1888 20.4777 18.6665 19.8333 18.6665Z" stroke="currentColor" stroke-width="1.5" stroke-linecap="round" stroke-linejoin="round"/>
</g>
<defs>
<clipPath id="clip0_1031_449">
<rect width="28" height="28" fill="currentColor"/>
</clipPath>
</defs>
</svg>
