<?xml version="1.0" encoding="UTF-8"?>
<svg id="Layer_2" data-name="Layer 2" xmlns="http://www.w3.org/2000/svg" viewBox="0 0 148.94 175.14">
  <defs>
    <style>
      .cls-1 {
        fill: #fff;
      }

      .cls-2 {
        fill: #f15742;
      }

      .cls-3 {
        opacity: .24;
      }

      .cls-3, .cls-4, .cls-5 {
        fill: #b1b7bd;
      }

      .cls-4 {
        opacity: .32;
      }

      .cls-6 {
        fill: #e2e5e7;
      }
    </style>
  </defs>
  <g id="Layer_1-2" data-name="Layer 1">
    <g id="Image_Icon" data-name="Image Icon">
      <path class="cls-6" d="m148.94,41v120.5c0,7.53-6.11,13.64-13.65,13.64H30.85c-7.54,0-13.65-6.11-13.65-13.64V13.64c0-7.53,6.11-13.64,13.65-13.64h76.81l41.28,41Z"/>
      <path class="cls-5" d="m107.66,27.36V0l41.28,41h-27.63c-7.54,0-13.65-6.11-13.65-13.64Z"/>
      <polygon class="cls-3" points="118.3 41 148.94 75.97 148.94 41 118.3 41"/>
      <path class="cls-4" d="m17.51,91.66h97.57c5.78,0,10.47,4.69,10.47,10.47v44.43c0,5.78-4.69,10.47-10.47,10.47H17.51v-65.36h0Z"/>
      <rect class="cls-2" y="84.66" width="125.55" height="65.36" rx="10.47" ry="10.47"/>
      <g>
        <path class="cls-1" d="m36.5,103.2c2.83,0,5.21.95,7.14,2.86s2.9,4.24,2.9,7.01-.97,5.11-2.9,7.01-4.31,2.86-7.14,2.86h-5.17v9.66h-5.8v-29.4h10.96Zm0,14.32c1.23,0,2.25-.43,3.07-1.28.81-.85,1.22-1.91,1.22-3.17s-.41-2.35-1.22-3.19c-.81-.84-1.83-1.26-3.07-1.26h-5.17v8.9h5.17Z"/>
        <path class="cls-1" d="m61.99,103.2c4.03,0,7.4,1.42,10.1,4.24,2.7,2.83,4.05,6.31,4.05,10.46s-1.35,7.63-4.05,10.46c-2.7,2.83-6.07,4.24-10.1,4.24h-11.68v-29.4h11.68Zm0,23.86c2.55,0,4.62-.85,6.22-2.54,1.6-1.69,2.39-3.9,2.39-6.62s-.8-4.92-2.39-6.62c-1.6-1.69-3.67-2.54-6.22-2.54h-5.88v18.31h5.88Z"/>
        <path class="cls-1" d="m97.82,108.74h-11.76v6.97h11.42v5.54h-11.42v11.34h-5.8v-29.4h17.56v5.54Z"/>
      </g>
    </g>
  </g>
</svg>