<!--?xml version="1.0" encoding="utf-8"?-->
<!-- Svg Vector Icons : http://www.onlinewebfonts.com/icon -->

<svg version="1.1" xmlns="http://www.w3.org/2000/svg" xmlns:xlink="http://www.w3.org/1999/xlink" x="0px" y="0px" viewBox="0 0 256 256" enable-background="new 0 0 256 256" xml:space="preserve">
<metadata> Svg Vector Icons : http://www.onlinewebfonts.com/icon </metadata>
<g><g><path fill="#ffffff" data-title="Layer 0" xs="0" d="M217.9,52.7H105.6c-23.9,0-28.1,27.8-28.1,28.1v28.1v30.4l18.7-10.2v-20.2h131v37.4c0,5.2-4.2,9.4-9.4,9.4h-81.7l-18.7,18.7h100.4c15.5,0,28.1-12.6,28.1-28.1v-37.4V80.8C246,65.3,233.4,52.7,217.9,52.7z M96.3,80.8c0-5.2,4.2-9.4,9.4-9.4h112.3c5.2,0,9.4,4.2,9.4,9.4H96.3z"/><path fill="#ffffff" data-title="Layer 1" xs="1" d="M113.2,171.3l15.8-14.1c10.3-9.6,18.9-20.4,11.4-30.3c-7.5-9.9-23-3.4-37.3,4.2l-33.6,17.8l5.1-73.7c-9.6-4.8-14.4-2-30.3,11.1l-34.3,30v86.9h42.9C90.8,203.3,94.6,187.1,113.2,171.3z"/></g></g>
</svg>