<svg width="60" height="60" viewBox="0 0 60 60" fill="none" xmlns="http://www.w3.org/2000/svg">
<g clip-path="url(#clip0_1036_90)">
<path d="M42.5 20V12.5C42.5 11.837 42.2366 11.2011 41.7678 10.7322C41.2989 10.2634 40.663 10 40 10H15C13.6739 10 12.4021 10.5268 11.4645 11.4645C10.5268 12.4021 10 13.6739 10 15C10 16.3261 10.5268 17.5979 11.4645 18.5355C12.4021 19.4732 13.6739 20 15 20H45C45.663 20 46.2989 20.2634 46.7678 20.7322C47.2366 21.2011 47.5 21.837 47.5 22.5V30M47.5 40V47.5C47.5 48.163 47.2366 48.7989 46.7678 49.2678C46.2989 49.7366 45.663 50 45 50H15C13.6739 50 12.4021 49.4732 11.4645 48.5355C10.5268 47.5979 10 46.3261 10 45V15" stroke="#F57B1C" stroke-width="2.75" stroke-linecap="round" stroke-linejoin="round"/>
<path d="M50 30V40H40C38.6739 40 37.4021 39.4732 36.4645 38.5355C35.5268 37.5979 35 36.3261 35 35C35 33.6739 35.5268 32.4021 36.4645 31.4645C37.4021 30.5268 38.6739 30 40 30H50Z" stroke="#F57B1C" stroke-width="2.75" stroke-linecap="round" stroke-linejoin="round"/>
</g>
<defs>
<clipPath id="clip0_1036_90">
<rect width="60" height="60" fill="white"/>
</clipPath>
</defs>
</svg>
