<?xml version="1.0" encoding="UTF-8"?>
<svg id="Layer_2" data-name="Layer 2" xmlns="http://www.w3.org/2000/svg" viewBox="0 0 148.94 175.14">
  <defs>
    <style>
      .cls-1 {
        fill: #a166aa;
      }

      .cls-2 {
        fill: #fff;
      }

      .cls-3 {
        opacity: .24;
      }

      .cls-3, .cls-4, .cls-5 {
        fill: #b1b7bd;
      }

      .cls-4 {
        opacity: .32;
      }

      .cls-6 {
        fill: #e2e5e7;
      }
    </style>
  </defs>
  <g id="Layer_1-2" data-name="Layer 1">
    <g id="Image_Icon" data-name="Image Icon">
      <path class="cls-6" d="m148.94,41v120.5c0,7.53-6.11,13.64-13.65,13.64H30.85c-7.54,0-13.65-6.11-13.65-13.64V13.64c0-7.53,6.11-13.64,13.65-13.64h76.81l41.28,41Z"/>
      <path class="cls-5" d="m107.66,27.36V0l41.28,41h-27.63c-7.54,0-13.65-6.11-13.65-13.64Z"/>
      <polygon class="cls-3" points="118.3 41 148.94 75.97 148.94 41 118.3 41"/>
      <path class="cls-4" d="m17.51,91.66h97.57c5.78,0,10.47,4.69,10.47,10.47v44.43c0,5.78-4.69,10.47-10.47,10.47H17.51v-65.36h0Z"/>
      <rect class="cls-1" y="84.66" width="125.55" height="65.36" rx="10.47" ry="10.47"/>
      <g>
        <path class="cls-2" d="m36.5,103.2c2.83,0,5.21.95,7.14,2.86s2.9,4.24,2.9,7.01-.97,5.11-2.9,7.01-4.31,2.86-7.14,2.86h-5.17v9.66h-5.8v-29.4h10.96Zm0,14.32c1.23,0,2.25-.43,3.07-1.28.81-.85,1.22-1.91,1.22-3.17s-.41-2.35-1.22-3.19c-.81-.84-1.83-1.26-3.07-1.26h-5.17v8.9h5.17Z"/>
        <path class="cls-2" d="m67.32,103.2h5.8v29.4h-4.41l-12.6-17.98v17.98h-5.8v-29.4h4.41l12.6,17.91v-17.91Z"/>
        <path class="cls-2" d="m107.43,116.81v2.27c0,4.2-1.34,7.6-4.03,10.21-2.69,2.6-6.16,3.91-10.42,3.91-4.54,0-8.29-1.48-11.28-4.43-2.98-2.95-4.47-6.56-4.47-10.82s1.48-7.91,4.43-10.88c2.95-2.97,6.61-4.45,10.98-4.45,2.74,0,5.25.62,7.52,1.87,2.27,1.25,4.03,2.91,5.29,4.98l-4.96,2.86c-.7-1.2-1.76-2.18-3.17-2.94-1.42-.76-2.99-1.13-4.73-1.13-2.8,0-5.1.92-6.91,2.75-1.81,1.83-2.71,4.15-2.71,6.95s.92,5.06,2.75,6.87,4.26,2.71,7.29,2.71c2.24,0,4.1-.5,5.57-1.49,1.47-.99,2.47-2.36,3-4.09h-8.9v-5.12h14.74Z"/>
      </g>
    </g>
  </g>
</svg>