<svg width="28" height="28" viewBox="0 0 28 28" fill="none" xmlns="http://www.w3.org/2000/svg">
<g clip-path="url(#clip0_1112_97)">
<path d="M14 24.5C19.799 24.5 24.5 19.799 24.5 14C24.5 8.20101 19.799 3.5 14 3.5C8.20101 3.5 3.5 8.20101 3.5 14C3.5 19.799 8.20101 24.5 14 24.5Z" stroke="white" stroke-width="1.5" stroke-linecap="round" stroke-linejoin="round"/>
<path d="M14 15.1667C15.933 15.1667 17.5 13.5997 17.5 11.6667C17.5 9.73369 15.933 8.16669 14 8.16669C12.067 8.16669 10.5 9.73369 10.5 11.6667C10.5 13.5997 12.067 15.1667 14 15.1667Z" stroke="white" stroke-width="1.5" stroke-linecap="round" stroke-linejoin="round"/>
<path d="M7.196 21.9905C7.48476 21.0295 8.07563 20.1871 8.88095 19.5883C9.68628 18.9896 10.6632 18.6664 11.6667 18.6667H16.3333C17.3381 18.6663 18.3162 18.9903 19.1221 19.5904C19.928 20.1906 20.5187 21.0348 20.8063 21.9975" stroke="white" stroke-width="1.5" stroke-linecap="round" stroke-linejoin="round"/>
</g>
<defs>
<clipPath id="clip0_1112_97">
<rect width="28" height="28" fill="white"/>
</clipPath>
</defs>
</svg>
