<svg width="40" height="40" viewBox="0 0 40 40" fill="none" xmlns="http://www.w3.org/2000/svg">
<g clip-path="url(#clip0_1052_314)">
<path d="M8.33333 26.6665H6.66667C5.74619 26.6665 5 27.4127 5 28.3332V33.3332C5 34.2536 5.74619 34.9998 6.66667 34.9998H8.33333C9.25381 34.9998 10 34.2536 10 33.3332V28.3332C10 27.4127 9.25381 26.6665 8.33333 26.6665Z" stroke="white" stroke-width="2" stroke-linecap="round" stroke-linejoin="round"/>
<path d="M10 33.3334C10 33.7754 10.1756 34.1994 10.4882 34.5119C10.8007 34.8245 11.2246 35.0001 11.6667 35.0001H17.9267C18.2852 35.0001 18.6342 34.8845 18.9219 34.6704C19.2095 34.4563 19.4204 34.1552 19.5233 33.8117L21.5233 28.8117C21.6733 28.3067 21.745 27.7617 21.43 27.3384C21.1167 26.9151 20.5267 26.6667 20 26.6667H16.6667V22.5551C16.6665 22.1617 16.5398 21.7789 16.3053 21.4631C16.0708 21.1473 15.741 20.9153 15.3645 20.8013C14.9881 20.6873 14.5849 20.6975 14.2147 20.8302C13.8444 20.9629 13.5267 21.2112 13.3083 21.5384L10 26.6667V33.3334V33.3334Z" stroke="white" stroke-width="2" stroke-linecap="round" stroke-linejoin="round"/>
<path d="M23.333 5V11.6667C23.333 12.1087 23.5086 12.5326 23.8212 12.8452C24.1337 13.1577 24.5576 13.3333 24.9997 13.3333H31.6663" stroke="white" stroke-width="2" stroke-linecap="round" stroke-linejoin="round"/>
<path d="M8.33301 20.1667V8.33333C8.33301 7.44928 8.6842 6.60143 9.30932 5.97631C9.93444 5.35119 10.7823 5 11.6663 5H23.333L31.6663 13.3333V31.6667C31.6663 32.5507 31.3152 33.3986 30.69 34.0237C30.0649 34.6488 29.2171 35 28.333 35H24.4997" stroke="white" stroke-width="2" stroke-linecap="round" stroke-linejoin="round"/>
</g>
<defs>
<clipPath id="clip0_1052_314">
<rect width="40" height="40" fill="white"/>
</clipPath>
</defs>
</svg>
