<svg width="36" height="26" viewBox="0 0 36 26" fill="none" xmlns="http://www.w3.org/2000/svg">
<path d="M35.1422 3.18777C33.8807 3.70458 32.525 4.05264 31.1022 4.20953C32.555 3.40662 33.6707 2.13435 34.195 0.618183C32.8365 1.36177 31.3307 1.90231 29.7279 2.19368C28.4464 0.931964 26.6164 0.143555 24.5936 0.143555C20.0522 0.143555 16.715 4.05396 17.7407 8.11335C11.8964 7.84307 6.71359 5.25899 3.24359 1.33144C1.40073 4.24909 2.28787 8.06588 5.4193 9.99867C4.26787 9.96439 3.18216 9.67303 2.23502 9.18653C2.15787 12.1938 4.49359 15.0073 7.87645 15.6336C6.88645 15.8814 5.80216 15.9394 4.6993 15.7443C5.59359 18.3231 8.19073 20.1992 11.2707 20.252C8.31359 22.3917 4.58787 23.3476 0.856445 22.9415C3.9693 24.7833 7.66787 25.8578 11.6393 25.8578C24.6993 25.8578 32.0779 15.6784 31.6322 6.54839C33.0065 5.6321 34.1993 4.48904 35.1422 3.18777Z" fill="#08A0E9"/>
</svg>
