<svg width="18" height="14" viewBox="0 0 18 14" fill="none" xmlns="http://www.w3.org/2000/svg">
<path d="M17.5715 2.09388C16.9408 2.35229 16.2629 2.52632 15.5515 2.60477C16.2779 2.20331 16.8358 1.56718 17.0979 0.809091C16.4186 1.18088 15.6658 1.45116 14.8644 1.59684C14.2236 0.965982 13.3086 0.571777 12.2972 0.571777C10.0265 0.571777 8.35793 2.52698 8.87079 4.55667C5.94865 4.42154 3.35722 3.12949 1.62222 1.16572C0.700793 2.62454 1.14436 4.53294 2.71008 5.49934C2.13436 5.4822 1.59151 5.33651 1.11794 5.09327C1.07936 6.59692 2.24722 8.00366 3.93865 8.31678C3.44365 8.44071 2.90151 8.46972 2.35008 8.37216C2.79722 9.66156 4.09579 10.5996 5.63579 10.626C4.15722 11.6959 2.29436 12.1738 0.42865 11.9708C1.98508 12.8917 3.83436 13.4289 5.82008 13.4289C12.3501 13.4289 16.0394 8.33919 15.8165 3.7742C16.5036 3.31605 17.1001 2.74452 17.5715 2.09388Z" fill="#1B1B1B"/>
</svg>
