<svg width="28" height="28" viewBox="0 0 28 28" fill="none" xmlns="http://www.w3.org/2000/svg">
<path d="M16.3332 15.9166C16.7474 15.9166 17.0832 15.5809 17.0832 15.1666C17.0832 14.7524 16.7474 14.4166 16.3332 14.4166V15.9166ZM16.3332 25.25C16.7474 25.25 17.0832 24.9142 17.0832 24.5C17.0832 24.0858 16.7474 23.75 16.3332 23.75V25.25ZM17.4998 19.0833C17.0856 19.0833 16.7498 19.4191 16.7498 19.8333C16.7498 20.2475 17.0856 20.5833 17.4998 20.5833V19.0833ZM24.4998 20.5833C24.9141 20.5833 25.2498 20.2475 25.2498 19.8333C25.2498 19.4191 24.9141 19.0833 24.4998 19.0833V20.5833ZM20.2498 23.3333C20.2498 23.7475 20.5856 24.0833 20.9998 24.0833C21.4141 24.0833 21.7498 23.7475 21.7498 23.3333H20.2498ZM21.7498 16.3333C21.7498 15.9191 21.4141 15.5833 20.9998 15.5833C20.5856 15.5833 20.2498 15.9191 20.2498 16.3333H21.7498ZM16.7498 6.99998C16.7498 9.16309 14.9963 10.9166 12.8332 10.9166V12.4166C15.8247 12.4166 18.2498 9.99152 18.2498 6.99998H16.7498ZM12.8332 10.9166C10.6701 10.9166 8.9165 9.16309 8.9165 6.99998H7.4165C7.4165 9.99152 9.84163 12.4166 12.8332 12.4166V10.9166ZM8.9165 6.99998C8.9165 4.83686 10.6701 3.08331 12.8332 3.08331V1.58331C9.84163 1.58331 7.4165 4.00844 7.4165 6.99998H8.9165ZM12.8332 3.08331C14.9963 3.08331 16.7498 4.83686 16.7498 6.99998H18.2498C18.2498 4.00844 15.8247 1.58331 12.8332 1.58331V3.08331ZM9.33317 15.9166H16.3332V14.4166H9.33317V15.9166ZM16.3332 23.75H9.33317V25.25H16.3332V23.75ZM9.33317 23.75C7.17006 23.75 5.4165 21.9964 5.4165 19.8333H3.9165C3.9165 22.8249 6.34163 25.25 9.33317 25.25V23.75ZM9.33317 14.4166C6.34163 14.4166 3.9165 16.8418 3.9165 19.8333H5.4165C5.4165 17.6702 7.17006 15.9166 9.33317 15.9166V14.4166ZM17.4998 20.5833H24.4998V19.0833H17.4998V20.5833ZM21.7498 23.3333V16.3333H20.2498V23.3333H21.7498Z" fill="#FFF9F5"/>
</svg>
